<svg width="174" height="37" viewBox="0 0 174 37" fill="none" xmlns="http://www.w3.org/2000/svg">
<path d="M17.15 2C7.67748 2 0 9.67746 0 19.15C0 28.0201 6.73548 35.3175 15.3711 36.207C14.8496 31.9134 15.0436 28.4001 15.7067 25.5135C15.3347 23.7225 14.4898 21.0703 12.5734 19.1864C12.5734 19.1864 13.8348 21.0784 14.5181 23.6214C14.5181 23.6255 14.5221 23.6295 14.5221 23.6335C14.5949 23.9044 14.6596 24.1793 14.7162 24.4623C14.7283 24.527 14.7404 24.5917 14.7526 24.6604C14.8051 24.9515 14.8536 25.2426 14.886 25.5418C5.19513 24.3532 3.12921 15.6569 3.35561 12.3781C13.665 12.9482 15.7754 19.8292 16.0827 24.0985C19.4585 13.0412 30.1843 12.4024 31.0697 12.3781C31.4538 20.8763 25.1509 27.5026 17.6149 28.0807C17.6635 27.8503 17.7201 27.6198 17.7767 27.3934C17.7928 27.3247 17.813 27.26 17.8333 27.1913C17.8777 27.0296 17.9222 26.8679 17.9748 26.7061C17.995 26.6374 18.0192 26.5646 18.0394 26.4959C18.096 26.318 18.1567 26.1442 18.2173 25.9663C18.2335 25.9259 18.2456 25.8854 18.2618 25.845C18.3386 25.6348 18.4195 25.4326 18.5003 25.2305C18.5084 25.2143 18.5125 25.1941 18.5205 25.1779C18.5205 25.1779 18.5205 25.1779 18.5246 25.1779C20.4571 20.5043 24.0229 17.4439 24.0229 17.4439C17.0247 21.4868 15.8441 31.9983 15.6582 36.2231C16.1514 36.2676 16.6446 36.2999 17.15 36.2999C26.6225 36.2999 34.3 28.6225 34.3 19.15C34.3 9.67746 26.6225 2 17.15 2Z" fill="#46A358"/>
<path d="M53.408 21.96C53.408 23.704 52.936 25.04 51.992 25.968C51.048 26.88 49.752 27.336 48.104 27.336C47.256 27.336 46.488 27.224 45.8 27C45.112 26.76 44.52 26.416 44.024 25.968C43.528 25.504 43.144 24.944 42.872 24.288C42.6 23.616 42.464 22.84 42.464 21.96V20.376H45.632V21.96C45.632 22.712 45.84 23.304 46.256 23.736C46.672 24.152 47.256 24.36 48.008 24.36C48.712 24.36 49.256 24.152 49.64 23.736C50.04 23.32 50.24 22.728 50.24 21.96V13.176H48.512V10.2H54.848V13.176H53.408V21.96ZM65.6313 15.096H68.6553V27H65.6313V25.272H65.1993C64.6713 26.648 63.5353 27.336 61.7913 27.336C61.1993 27.336 60.6473 27.24 60.1353 27.048C59.6233 26.856 59.1753 26.56 58.7913 26.16C58.4073 25.76 58.1033 25.264 57.8793 24.672C57.6713 24.064 57.5673 23.352 57.5673 22.536V15.096H60.5913V21.912C60.5913 22.76 60.7913 23.424 61.1913 23.904C61.5913 24.368 62.1913 24.6 62.9913 24.6C63.9033 24.6 64.5673 24.312 64.9833 23.736C65.4153 23.144 65.6313 22.344 65.6313 21.336V15.096ZM76.0546 18.456C76.0546 18.84 76.2546 19.12 76.6546 19.296C77.0546 19.456 77.7826 19.592 78.8386 19.704C80.0546 19.832 81.0466 20.2 81.8146 20.808C82.5826 21.4 82.9666 22.232 82.9666 23.304V23.448C82.9666 24.632 82.5346 25.576 81.6706 26.28C80.8066 26.984 79.5906 27.336 78.0226 27.336C77.0946 27.336 76.3026 27.216 75.6466 26.976C74.9906 26.736 74.4466 26.44 74.0146 26.088C73.5826 25.72 73.2466 25.32 73.0066 24.888C72.7826 24.44 72.6306 24.008 72.5506 23.592L75.3346 22.68C75.4626 23.192 75.7266 23.64 76.1266 24.024C76.5426 24.408 77.1746 24.6 78.0226 24.6C78.7746 24.6 79.2866 24.488 79.5586 24.264C79.8466 24.024 79.9906 23.768 79.9906 23.496C79.9906 23.336 79.9506 23.192 79.8706 23.064C79.8066 22.92 79.6786 22.792 79.4866 22.68C79.2946 22.552 79.0306 22.448 78.6946 22.368C78.3746 22.288 77.9666 22.224 77.4706 22.176C76.1266 22.064 75.0546 21.72 74.2546 21.144C73.4706 20.552 73.0786 19.688 73.0786 18.552V18.408C73.0786 17.816 73.2066 17.296 73.4626 16.848C73.7186 16.4 74.0546 16.024 74.4706 15.72C74.8866 15.4 75.3666 15.16 75.9106 15C76.4546 14.84 77.0146 14.76 77.5906 14.76C78.3426 14.76 78.9906 14.856 79.5346 15.048C80.0946 15.224 80.5666 15.464 80.9506 15.768C81.3346 16.056 81.6466 16.384 81.8866 16.752C82.1266 17.104 82.3106 17.448 82.4386 17.784L79.7026 18.888C79.5586 18.456 79.3106 18.12 78.9586 17.88C78.6066 17.624 78.1506 17.496 77.5906 17.496C77.0786 17.496 76.6946 17.592 76.4386 17.784C76.1826 17.96 76.0546 18.184 76.0546 18.456ZM86.6219 15.096H90.1499V10.2H93.1739V15.096H97.4699V17.976H93.1739V23.4C93.1739 23.88 93.3899 24.12 93.8219 24.12H97.0379V27H91.9979C91.4539 27 91.0059 26.824 90.6539 26.472C90.3179 26.12 90.1499 25.672 90.1499 25.128V17.976H86.6219V15.096ZM106.021 18.504H113.221V27H110.341V25.128H109.909C109.717 25.752 109.349 26.28 108.805 26.712C108.261 27.128 107.445 27.336 106.357 27.336C105.589 27.336 104.869 27.192 104.197 26.904C103.525 26.616 102.941 26.192 102.445 25.632C101.949 25.056 101.557 24.352 101.269 23.52C100.981 22.672 100.837 21.688 100.837 20.568V16.632C100.837 15.544 100.989 14.584 101.293 13.752C101.613 12.904 102.045 12.192 102.589 11.616C103.149 11.04 103.813 10.608 104.581 10.32C105.349 10.016 106.197 9.864 107.125 9.864C108.085 9.864 108.941 10.024 109.693 10.344C110.445 10.648 111.085 11.08 111.613 11.64C112.141 12.184 112.541 12.832 112.813 13.584C113.085 14.32 113.221 15.112 113.221 15.96V16.248H110.053V15.96C110.053 14.952 109.789 14.192 109.261 13.68C108.749 13.152 108.021 12.888 107.077 12.888C106.181 12.888 105.445 13.192 104.869 13.8C104.293 14.392 104.005 15.416 104.005 16.872V20.424C104.005 23.016 105.061 24.312 107.173 24.312C108.117 24.312 108.829 24.064 109.309 23.568C109.805 23.056 110.053 22.376 110.053 21.528H106.021V18.504ZM115.773 15.096H120.813V16.824H121.245C121.469 16.168 121.845 15.664 122.373 15.312C122.917 14.944 123.565 14.76 124.317 14.76C125.501 14.76 126.453 15.136 127.173 15.888C127.893 16.624 128.253 17.752 128.253 19.272V19.8L125.133 20.088V19.752C125.133 19.096 124.965 18.576 124.629 18.192C124.293 17.792 123.789 17.592 123.117 17.592C122.445 17.592 121.917 17.824 121.533 18.288C121.149 18.752 120.957 19.416 120.957 20.28V24.12H123.693V27H115.485V24.12H117.933V17.976H115.773V15.096ZM133.708 22.032C133.724 22.384 133.804 22.712 133.948 23.016C134.108 23.304 134.316 23.56 134.572 23.784C134.844 23.992 135.148 24.16 135.484 24.288C135.836 24.4 136.204 24.456 136.588 24.456C137.34 24.456 137.916 24.328 138.316 24.072C138.716 23.8 139.004 23.48 139.18 23.112L141.772 24.552C141.628 24.856 141.428 25.176 141.172 25.512C140.916 25.832 140.58 26.128 140.164 26.4C139.764 26.672 139.268 26.896 138.676 27.072C138.1 27.248 137.42 27.336 136.636 27.336C135.74 27.336 134.924 27.192 134.188 26.904C133.452 26.616 132.812 26.2 132.268 25.656C131.74 25.112 131.324 24.448 131.02 23.664C130.732 22.88 130.588 21.992 130.588 21V20.856C130.588 19.944 130.74 19.112 131.044 18.36C131.364 17.608 131.796 16.968 132.34 16.44C132.884 15.912 133.516 15.504 134.236 15.216C134.972 14.912 135.756 14.76 136.588 14.76C137.612 14.76 138.492 14.944 139.228 15.312C139.964 15.664 140.572 16.12 141.052 16.68C141.532 17.224 141.884 17.832 142.108 18.504C142.332 19.16 142.444 19.8 142.444 20.424V22.032H133.708ZM136.564 17.496C135.796 17.496 135.172 17.696 134.692 18.096C134.212 18.48 133.9 18.928 133.756 19.44H139.372C139.276 18.88 138.972 18.416 138.46 18.048C137.964 17.68 137.332 17.496 136.564 17.496ZM148.403 22.032C148.419 22.384 148.499 22.712 148.643 23.016C148.803 23.304 149.011 23.56 149.267 23.784C149.539 23.992 149.843 24.16 150.179 24.288C150.531 24.4 150.899 24.456 151.283 24.456C152.035 24.456 152.611 24.328 153.011 24.072C153.411 23.8 153.699 23.48 153.875 23.112L156.467 24.552C156.323 24.856 156.123 25.176 155.867 25.512C155.611 25.832 155.275 26.128 154.859 26.4C154.459 26.672 153.963 26.896 153.371 27.072C152.795 27.248 152.115 27.336 151.331 27.336C150.435 27.336 149.619 27.192 148.883 26.904C148.147 26.616 147.507 26.2 146.963 25.656C146.435 25.112 146.019 24.448 145.715 23.664C145.427 22.88 145.283 21.992 145.283 21V20.856C145.283 19.944 145.435 19.112 145.739 18.36C146.059 17.608 146.491 16.968 147.035 16.44C147.579 15.912 148.211 15.504 148.931 15.216C149.667 14.912 150.451 14.76 151.283 14.76C152.307 14.76 153.187 14.944 153.923 15.312C154.659 15.664 155.267 16.12 155.747 16.68C156.227 17.224 156.579 17.832 156.803 18.504C157.027 19.16 157.139 19.8 157.139 20.424V22.032H148.403ZM151.259 17.496C150.491 17.496 149.867 17.696 149.387 18.096C148.907 18.48 148.595 18.928 148.451 19.44H154.067C153.971 18.88 153.667 18.416 153.155 18.048C152.659 17.68 152.027 17.496 151.259 17.496ZM163.459 27H160.435V15.096H163.459V16.872H163.891C164.163 16.2 164.603 15.68 165.211 15.312C165.819 14.944 166.531 14.76 167.347 14.76C167.923 14.76 168.459 14.856 168.955 15.048C169.467 15.224 169.915 15.504 170.299 15.888C170.683 16.272 170.979 16.76 171.187 17.352C171.411 17.944 171.523 18.648 171.523 19.464V27H168.499V20.232C168.499 19.384 168.291 18.72 167.875 18.24C167.475 17.744 166.891 17.496 166.123 17.496C165.227 17.496 164.555 17.8 164.107 18.408C163.675 19 163.459 19.8 163.459 20.808V27Z" fill="#46A358"/>
</svg>
